<svg xmlns="http://www.w3.org/2000/svg" width="182.001" height="182.001" viewBox="0 0 182.001 182.001">
  <path id="パス_1222" data-name="パス 1222" d="M151.529,75.878h-3.587V74.467h3.587Zm-24.948-2.009h4.543V70.043h-4.543Zm24.948-2.75h-3.587v1.243h3.587ZM182,91h0a91,91,0,0,1-91,91h0A91,91,0,0,1,91,0h0a91,91,0,0,1,91,91M156.216,67.459c0,2.632.669,3.47,3.466,3.47h3.3c2.2,0,2.943-.886,3.253-3.947a7.878,7.878,0,0,1-2.512-1.051c-.1,2.08-.262,2.438-1.028,2.438H160.09c-.908,0-1.052-.1-1.052-.957V66a44.966,44.966,0,0,0,6.122-2.247L163.341,61.7a37.225,37.225,0,0,1-4.3,1.986v-3.42h-2.821ZM123.6,34.706V48.647a8.873,8.873,0,0,1-.193,1.77l2.012,1.651a5.123,5.123,0,0,1,1.026-.717,26.352,26.352,0,0,0,8.109-6.529l-1.842-2.631a15.142,15.142,0,0,1-5.907,5.045V34.73a12.256,12.256,0,0,1,.166-2.08h-3.564a10.247,10.247,0,0,1,.193,2.055m-12.475,36.27a19.013,19.013,0,0,1-.978,6.625,1.76,1.76,0,0,1-1.8,1.028,13.927,13.927,0,0,1-2.916-.5l.5,3.155a15.728,15.728,0,0,0,2.871.335c1.816,0,3.132-.527,3.922-2.2,1.028-2.08,1.363-5.953,1.363-8.775,0-3.444-1.8-4.569-4.33-4.569-.5,0-1.195.049-2.008.1.169-.862.358-1.747.5-2.463.119-.6.286-1.363.43-1.985l-3.562-.359a24.429,24.429,0,0,1-.5,5.045c-1.221.12-2.345.191-3.085.215a22.261,22.261,0,0,1-2.561,0l.288,3.253c.742-.12,1.987-.288,2.679-.407.431-.047,1.195-.143,2.058-.239-.886,3.276-2.537,8.107-4.856,11.239l3.109,1.244c2.2-3.516,3.971-9.184,4.879-12.818.693-.049,1.29-.1,1.674-.1,1.482,0,2.319.263,2.319,2.177m6.96,3.348,3.037-1.388a43.4,43.4,0,0,0-3.9-8.346l1.171-.5a37.54,37.54,0,0,0-1.914-3.275L114.6,61.6a26.28,26.28,0,0,1,1.624,2.822l-2.151.934a26.858,26.858,0,0,1,4.017,8.968m3.155-11.336a31.6,31.6,0,0,0-1.911-3.252l-1.913.765a27.3,27.3,0,0,1,1.937,3.3Zm-8.9-12.93L115.255,52a14.013,14.013,0,0,0,4.256-6.863c.647-2.415.717-7.461.717-10.282a15.585,15.585,0,0,1,.169-2.177h-3.516a9.026,9.026,0,0,1,.215,2.2c0,2.892-.023,7.412-.694,9.469a11.271,11.271,0,0,1-4.064,5.714M91.6,43.626c.885-.072,2.487-.119,3.851-.119H108.29c1.005,0,2.224.095,2.8.119V39.873c-.622.047-1.674.142-2.8.142H95.449c-1.242,0-2.99-.072-3.851-.142ZM87.09,67.938V64.4A26.251,26.251,0,0,1,87.3,61.53H83.573a16.694,16.694,0,0,1,.239,2.869V78.15a26.569,26.569,0,0,1-.239,3.348H87.3c-.095-.982-.212-2.656-.212-3.348V71.382a69.151,69.151,0,0,1,8.632,3.562l1.361-3.3a78.1,78.1,0,0,0-9.993-3.707M69.928,43.363c.716-.047,1.913-.119,2.605-.119h3.9v4.615c0,2.415,1.077,3.921,5.453,3.921,2.248,0,4.952-.1,6.5-.191l.216-3.229c-1.914.192-4.017.335-6.169.335-1.914,0-2.728-.477-2.728-1.793V43.244H87c.527,0,1.6,0,2.271.072l-.023-3.062c-.622.047-1.816.1-2.319.1H79.708V36.285h5.619c.861,0,1.532.047,2.154.07v-2.99a17.587,17.587,0,0,1-2.154.121h-11.5c-.861,0-1.627-.072-2.319-.121v2.99c.692-.047,1.458-.07,2.319-.07h2.605V40.35h-3.9c-.739,0-1.936-.072-2.605-.119Zm5.531,26.155H62.617c-1.242,0-2.99-.073-3.851-.144v3.755c.885-.072,2.487-.12,3.851-.12H75.459c1.006,0,2.224.1,2.8.12V69.373c-.622.049-1.674.144-2.8.144M61.119,36.643A18.564,18.564,0,0,1,57.558,42.5a26.816,26.816,0,0,1-9.806,6.864l2.464,2.582a31.485,31.485,0,0,0,8.991-6.719A54.483,54.483,0,0,1,65.234,52l2.727-2.366a67.379,67.379,0,0,0-6.672-6.841,35.128,35.128,0,0,0,3.752-6.576,11.642,11.642,0,0,1,.838-1.482l-1.961-1.459a8.558,8.558,0,0,1-2.462.311H53.013a26.647,26.647,0,0,1-2.821-.166v3.4c.5-.024,1.819-.168,2.821-.168ZM35.965,79.13a66.993,66.993,0,0,0-6.672-6.838,35.207,35.207,0,0,0,3.756-6.577,11.281,11.281,0,0,1,.836-1.482l-1.961-1.459a8.568,8.568,0,0,1-2.463.311H21.021a26.971,26.971,0,0,1-2.822-.168v3.4c.5-.023,1.817-.168,2.822-.168h8.106A18.511,18.511,0,0,1,25.564,72a26.806,26.806,0,0,1-9.8,6.861l2.463,2.583a31.519,31.519,0,0,0,8.991-6.719A54.426,54.426,0,0,1,33.241,81.5ZM57.136,65.187,54.7,63.682a7.641,7.641,0,0,1-2.08.263H47.761a25.852,25.852,0,0,1,1.485-2.44l-3.47-1.077a9.833,9.833,0,0,1-1.1,2.487,22.191,22.191,0,0,1-7.6,7.964l2.582,1.986a28.711,28.711,0,0,0,6.314-6.195h6.838a16.968,16.968,0,0,1-2.629,5.286c-1.505-1.005-3.013-1.986-4.279-2.7L43.768,71.43c1.219.765,2.8,1.842,4.353,2.989a20.318,20.318,0,0,1-8.778,5.19l2.775,2.417a22.542,22.542,0,0,0,8.561-5.669c.98.789,1.866,1.531,2.512,2.128l2.271-2.7c-.693-.574-1.627-1.266-2.656-2.008a27.256,27.256,0,0,0,3.54-6.888,11.37,11.37,0,0,1,.79-1.7M67.742,94.451a5.031,5.031,0,1,0-8.012,4.033v63.573h5.963V98.484a5.009,5.009,0,0,0,2.049-4.033m56.578,9.942c-12.3,6.334-18.631-8.2-34.654-8.2s-19,9.316-19,9.316V142.4s2.981-9.316,19-9.316,22.358,14.532,34.654,8.2Zm2.262-27.8h7.364V67.341H123.807V78.414h2.774Zm16.573-14.8H121.606v2.87h15.808v14.2c0,.5-.216.671-.766.671-.574,0-2.654.023-4.351-.073a13.022,13.022,0,0,1,1.171,3.013,16.177,16.177,0,0,0,5.4-.526c1.124-.478,1.532-1.315,1.532-3.037V64.662h2.75Zm11.172,6.983h-9.015V82.5h2.629V77.981h3.588v1.6c0,.286-.1.358-.382.358a20.249,20.249,0,0,1-2.105,0,11.643,11.643,0,0,1,.908,2.51,7.1,7.1,0,0,0,3.348-.478c.789-.405,1.028-1.1,1.028-2.343Zm1.7-1.458a22.773,22.773,0,0,0-2.893-5.525l-2.393.885c.385.623.766,1.292,1.124,1.961l-3.179.144c.6-1.269,1.242-2.7,1.792-4.09l-2.963-.6a37.884,37.884,0,0,1-1.747,4.806c-.669.024-1.29.047-1.865.047l.238,2.7c2.439-.144,5.692-.335,8.849-.55a8.995,8.995,0,0,1,.431,1.266Zm10.4,10.738A8.844,8.844,0,0,1,163.941,77c-.12,2.415-.287,2.87-1.1,2.87h-2.727c-.932,0-1.1-.12-1.1-.957V77a36.311,36.311,0,0,0,6.384-2.535l-1.889-2.081a27.138,27.138,0,0,1-4.5,2.248V71.405h-2.8v7.51c0,2.631.692,3.444,3.49,3.444h3.4c2.294,0,3.011-.934,3.324-4.3" fill="#2fc996"/>
</svg>
