<svg xmlns="http://www.w3.org/2000/svg" width="182.001" height="182.001" viewBox="0 0 182.001 182.001">
  <path id="パス_1220" data-name="パス 1220" d="M192.6,71.215l.526,1.937h-4.208l.526-1.937c.527-1.842,1.052-3.851,1.505-5.787h.121c.5,1.913.98,3.945,1.53,5.787m57.038,41.805a12.719,12.719,0,1,0,12.722,12.715,12.719,12.719,0,0,0-12.722-12.715m91-22.02h0a91,91,0,1,1-91-91,91,91,0,0,1,91,91m-79.53-48.425c.622-.049,1.507-.1,2.248-.1h6.577c-.455,3.54-2.368,6.1-6,7.773l3.037,2.081a12.047,12.047,0,0,0,6.122-9.854h6.192c.647,0,1.46.049,2.1.1V39.489c-.526.049-1.65.144-2.175.144h-6.027v-3.8a38.146,38.146,0,0,0,4.018-.79c.405-.095,1.027-.261,1.84-.453l-1.961-2.632a25.883,25.883,0,0,1-6.025,1.436,56.4,56.4,0,0,1-8.157.384l.742,2.774c1.6-.049,4.114-.121,6.41-.311v3.4h-6.743a20.849,20.849,0,0,1-2.2-.144Zm13.7,32.107a13.281,13.281,0,0,1-5.093,5.429,12.5,12.5,0,0,1,1.911,2.224,16.045,16.045,0,0,0,4.9-5.165,21.912,21.912,0,0,1,1.627,2.941l2.271-1.936a23.667,23.667,0,0,0-2.463-3.875,32.6,32.6,0,0,0,1.961-6.958l-2.774-.359a28.037,28.037,0,0,1-1.147,4.832c-1.053-1.267-2.127-2.487-3.156-3.588l-2.032,1.6c1.313,1.458,2.725,3.155,3.993,4.853m-4.884-.358-1.843-2.631a15.119,15.119,0,0,1-5.906,5.046V64.232a12.043,12.043,0,0,1,.169-2.081h-3.564a10.5,10.5,0,0,1,.193,2.058V78.15a9.16,9.16,0,0,1-.193,1.769L260.8,81.57a5.021,5.021,0,0,1,1.028-.717,26.333,26.333,0,0,0,8.107-6.529m-20.16-39.618V48.647a9.057,9.057,0,0,1-.193,1.77l2.009,1.651a5.121,5.121,0,0,1,1.028-.717,26.315,26.315,0,0,0,8.107-6.529l-1.842-2.631a15.125,15.125,0,0,1-5.907,5.045V34.73a11.983,11.983,0,0,1,.169-2.08H249.58a10.454,10.454,0,0,1,.193,2.055m-2.056,44.855,2.92,1.937a14.037,14.037,0,0,0,4.255-6.864c.646-2.416.719-7.462.719-10.283a15.82,15.82,0,0,1,.166-2.177h-3.514a9.112,9.112,0,0,1,.214,2.2c0,2.894-.023,7.414-.692,9.469a11.282,11.282,0,0,1-4.067,5.717m-.938-19.9-1.89.789a27.836,27.836,0,0,1,1.913,3.3l1.914-.838a37.154,37.154,0,0,0-1.937-3.252M235.658,71.55a10.248,10.248,0,0,1-1.482,5.284,9.755,9.755,0,0,1-4.329,3.42l2.8,2.032a11.319,11.319,0,0,0,4.809-4.591,15.147,15.147,0,0,0,1.53-6.145h5.764c.669,0,1.579.023,2.177.07V68.512a18.047,18.047,0,0,1-2.177.144H229.083a18.191,18.191,0,0,1-2.3-.144v3.133c.671-.049,1.6-.1,2.3-.1Zm4.282-8.968h-7.819a18.022,18.022,0,0,1-2.561-.192v3.085c.719-.047,1.748-.072,2.561-.072h7.819c.836,0,1.769.024,2.582.072V62.39a18.858,18.858,0,0,1-2.582.192m3.993,2.271,1.913-.836c-.455-.885-1.292-2.393-1.889-3.278l-1.914.79a30,30,0,0,1,1.89,3.324m-5.425-14.795L241.427,52a14.023,14.023,0,0,0,4.255-6.863c.646-2.415.719-7.461.719-10.282a15.741,15.741,0,0,1,.166-2.177h-3.514a9.1,9.1,0,0,1,.214,2.2c0,2.893-.023,7.412-.692,9.47a11.286,11.286,0,0,1-4.067,5.714m-20.62-12.745c.5-.049,1.794-.168,2.751-.168h12.651a26.546,26.546,0,0,1-6.073,6.888c-1.507-1.316-3.085-2.609-4.044-3.325l-2.534,2.032a50.966,50.966,0,0,1,5.261,4.591,62.354,62.354,0,0,1,4.568,5.165l2.8-2.224c-.935-1.123-2.345-2.678-3.709-4.041a39.754,39.754,0,0,0,8.157-9.35,8.1,8.1,0,0,1,.813-1.005l-2.393-1.961a7.723,7.723,0,0,1-2.224.263H220.638a22.96,22.96,0,0,1-2.751-.215ZM198.845,80.446l-5.692-17.721h-4.161l-5.667,17.721h3.587l1.243-4.543h5.74l1.243,4.543Zm4.427-17.721h-3.54V80.446h3.54ZM217.86,81.282c2.248,0,4.952-.095,6.5-.192l.216-3.227c-1.914.191-4.017.334-6.169.334-1.914,0-2.727-.478-2.727-1.793v-3.66h7.292c.527,0,1.6,0,2.271.073l-.023-3.062c-.622.049-1.816.1-2.319.1h-7.222V65.786H221.3c.861,0,1.532.049,2.154.072V62.869a17.891,17.891,0,0,1-2.154.119H209.8c-.861,0-1.627-.072-2.319-.119v2.989c.692-.047,1.458-.072,2.319-.072h2.605v4.066h-3.9c-.739,0-1.936-.07-2.605-.119v3.133c.716-.049,1.913-.121,2.605-.121h3.9v4.617c0,2.415,1.077,3.921,5.453,3.921m64.85,37.737H274.7a25.746,25.746,0,0,0-2.585-6.251l5.66-5.659-9.507-9.5-5.657,5.656a25.755,25.755,0,0,0-6.249-2.585v-8H242.919v8a25.749,25.749,0,0,0-6.245,2.585L231.016,97.6l-9.507,9.508,5.66,5.661a25.769,25.769,0,0,0-2.586,6.249h-8.01v13.44h8.011a25.846,25.846,0,0,0,2.585,6.248l-5.66,5.662,9.507,9.505,5.663-5.661a25.764,25.764,0,0,0,6.24,2.58v8.01h13.445v-8.009a25.78,25.78,0,0,0,6.247-2.582l5.66,5.662,9.507-9.505-5.661-5.661a25.791,25.791,0,0,0,2.586-6.249h8.008Zm.43-42.592L285.6,75.16a18.8,18.8,0,0,0-2.655-5.045l-2.271,1.1a20.014,20.014,0,0,1,2.463,5.213M292.275,65.5h-2.56V60.19h-2.8V65.5h-5.212V63.873h-4.424V60.214h-2.727v3.659h-4.161V66.5h10.523v1.721h6V78.988c0,.381-.142.5-.573.5-.405,0-1.7.024-3.037-.047a11.724,11.724,0,0,1,.91,3.06,9.5,9.5,0,0,0,4.3-.623c.908-.454,1.195-1.29,1.195-2.892V68.225h2.56Zm2.708,16.98c2.15-3.73,2.51-9.636,2.51-13.487V65.667H314.76v-2.7h-8.634v-2.75h-2.966v2.75h-8.515v6.027c0,3.443-.165,8.465-2.126,11.885a13.354,13.354,0,0,1,2.463,1.6m9.277-16.739L302.372,67.6a27.584,27.584,0,0,1,5.619,3.729l2.058-2.128a30.117,30.117,0,0,0-5.788-3.467m-2.892,6.887-2.561-.55a19.729,19.729,0,0,1-1.744,7.246l2.535,1.124c1.076-1.913,1.508-5.07,1.771-7.82m9.827,4.209a7.475,7.475,0,0,1-2.511-1.147c-.095,3.3-.239,3.851-.958,3.851h-1.935c-.671,0-.766-.121-.766-.982V70.234h-2.821V78.58c0,2.655.6,3.493,3.132,3.493h2.654c2.224,0,2.941-1.148,3.2-5.238m4.161,2.44a28.353,28.353,0,0,0-3.182-7.819l-2.535.978a28.419,28.419,0,0,1,2.918,7.988Z" transform="translate(-158.642)" fill="#2fc996"/>
</svg>
