<svg xmlns="http://www.w3.org/2000/svg" width="182.002" height="182.001" viewBox="0 0 182.002 182.001">
  <path id="パス_1221" data-name="パス 1221" d="M431.53,72.673h2.035V73.7H431.53Zm4.592,4.018h2.127V75.544h-2.127ZM392.9,70.712h-6.722v1.195H392.9ZM379.959,36.5H368.6v2.463h11.359Zm0,5.094H368.6v2.463h11.359Zm51.572,35.1h2.035V75.544H431.53ZM387.756,65.714h3.037l-.118-.024c.237-.526.523-1.219.716-1.793H387.4a7.589,7.589,0,0,1,.668,1.746Zm26-23.834h4.4V40.66h-4.4Zm0-3.037h4.4V37.624h-4.4ZM436.17,63.9h-2.632v.981h2.632Zm-.047,9.805h2.127V72.673h-2.127ZM425.5,37.624h-4.567v1.219H425.5Zm-24.443,35c0,2.416.959,3.587,1.89,3.587,1.005,0,1.937-1.507,2.918-4.734a35.7,35.7,0,0,0,1.266-5.788,7.529,7.529,0,0,0-6.075,6.935M425.5,40.66h-4.567v1.22H425.5Zm-32.6,32.9h-6.722v1.221H392.9Zm66.161-2.893V68.249h-3.49v.6c0,.335-.024.647-.047.982l1.195-1.029a22.563,22.563,0,0,1,2.343,1.866m-9.973-35.672h-5.045v2.774h5.045Zm-7.917,5.43h-4.5v.43c0,.765-.023,1.625-.07,2.51h4.566Zm0-5.43h-4.5v2.774h4.5Zm7.917,5.43h-5.045v2.94h5.045ZM368.212,75.8a9.639,9.639,0,0,0,1.413,1.747,20.167,20.167,0,0,0,2.127-1.747Zm1.963-3.562h-6.864V73.8h6.864ZM499.285,91h0a91,91,0,1,1-91-91,91,91,0,0,1,91,91M453.227,63.634v-1.77h-5.334a12.455,12.455,0,0,0,.573-1.147L445.814,60a12.219,12.219,0,0,1-3.493,4.686,15.432,15.432,0,0,1,2.3,1.556,14.173,14.173,0,0,0,1.863-2.154h.385a10.969,10.969,0,0,1,1.027,2.177l2.3-.669a10.812,10.812,0,0,0-.742-1.508H452.8q-.466.43-.932.79a15.712,15.712,0,0,1,2.487,1.363,13.135,13.135,0,0,0,1.888-2.154h1.316a11.2,11.2,0,0,1,1.316,2.154l2.413-.694a9.648,9.648,0,0,0-.908-1.459h4.185V61.864h-6.935a13.445,13.445,0,0,0,.574-1.219L455.5,60a11.53,11.53,0,0,1-2.271,3.635M431.033,51.3a10.528,10.528,0,0,1,2.247,1.84,13.713,13.713,0,0,0,3.014-7.1h4.877v6.672h2.872V46.042h5.045v3.587c0,.429-.169.574-.622.574-.431,0-2.01.023-3.348-.047a10.709,10.709,0,0,1,.908,2.725c2.154.023,3.612-.024,4.591-.5.958-.432,1.292-1.2,1.292-2.727V32.291H433.854v8.537c0,3.348-.216,7.605-2.821,10.475m-.124,10.633h-2.463V63.9h2.463v.981h-1.961v1.913h1.961v1h-2.966V69.8h5.622v.908h-4.592v5.979h-1.459v2.081h1.459v3.563h2.558V78.772h6.719v1c0,.286-.095.359-.405.359-.286,0-1.269.023-2.152-.024a10,10,0,0,1,.742,2.248,8.929,8.929,0,0,0,3.42-.384c.789-.382,1.028-.98,1.028-2.175V78.772h1.29V76.691h-1.29V70.712h-4.759V69.8h5.811V67.795h-3.11v-1h2.3V64.878h-2.3V63.9H441.5V61.936h-2.679V60.19H436.17v1.747h-2.632V60.19h-2.629ZM422.9,73.558V82.5h2.582V72.315c.526,1.077,1.052,2.2,1.363,2.94l1.46-2.031c-.385-.669-2.154-3.42-2.824-4.352V67.746h2.391V65.117H425.48V60.19H422.9v4.927h-2.87v2.629h2.654a23.864,23.864,0,0,1-3.2,8.011,13.753,13.753,0,0,1,1.243,2.512,20.155,20.155,0,0,0,2.177-4.711M408.833,47.477h5.119L412.231,48.7a17.581,17.581,0,0,1,3.419,3.348l2.271-1.674a16.356,16.356,0,0,0-3.156-2.893h7.773v2.7c0,.311-.144.405-.527.43-.408,0-1.913,0-3.182-.047a9.58,9.58,0,0,1,.885,2.486,14.093,14.093,0,0,0,4.329-.381c1.005-.384,1.293-1.029,1.293-2.393v-2.8h5.14V45.085h-5.14V43.818h2.939v-8.13h-7.34V34.611H429.9v-2.32h-8.966V30.713H418.16v1.578h-8.777v2.32h8.777v1.077h-7.03v8.13h11.408v1.267h-13.7Zm6.575,24.455c0,3.491-2.393,5.692-5.453,6.409a18.256,18.256,0,0,1-2.224.384l1.794,2.846c6.025-.932,9.11-4.5,9.11-9.542,0-5.214-3.729-9.327-9.66-9.327-6.2,0-10.978,4.71-10.978,10.235,0,4.041,2.2,6.96,4.856,6.96,2.605,0,4.662-2.967,6.1-7.8a48.292,48.292,0,0,0,1.435-6.48c3.227.55,5.022,3.012,5.022,6.313M395.746,40.8h4.544v8.753h-5.525v2.775H408.3V49.556h-5.093V40.8h4.52v-2.75h-4.52V30.9H400.29v7.15h-4.544Zm-5.695,35.744v2.8c0,2.273.48,3.062,2.727,3.062h1.866c1.674,0,2.343-.717,2.606-3.467a6.806,6.806,0,0,1-2.366-1.005c-.05,1.817-.169,2.056-.551,2.056h-1.076c-.432,0-.5-.072-.5-.669V76.548H395.7v-7.58H383.524v7.58h2.032c-.43,1.744-1.482,2.941-5.238,3.658a8.565,8.565,0,0,1,1.556,2.393c4.566-1.173,5.953-3.182,6.48-6.05Zm-12.77-8.012v6.458c-1.1.43-2.1.811-2.917,1.1l.955,2.847c2.177-1.005,4.927-2.248,7.438-3.468l-.62-2.51c-.743.311-1.482.646-2.224.957V68.535h2.175V65.857h-2.175V60.526h-2.632v5.332h-2.367v2.678Zm8.058-2.821h-3.155v2.32H396.8v-2.32h-3.422c.263-.48.574-1.053.885-1.7l-.6-.12h2.7V61.7H390.7V60.238h-2.8V61.7h-5.191v2.2h2.917l-.885.191a7.71,7.71,0,0,1,.6,1.627M392.017,37.7a17.862,17.862,0,0,1-6.672,6.672,11.379,11.379,0,0,1,1.338,2.7,19.754,19.754,0,0,0,2.966-2.3v8.251h2.821V44.009c.813.886,1.627,1.842,2.129,2.51l1.721-2.32c-.5-.477-2.343-2.128-3.49-3.06a23.232,23.232,0,0,0,2.821-5.117l-1.6-1.029-.5.12H392.47v-4.4h-2.821v4.4h-3.4V37.7ZM365.706,53H368.6V51.8h11.36v1.173H383v-19.2h-8.2c.384-.861.766-1.794,1.124-2.75l-3.443-.384a26.857,26.857,0,0,1-.646,3.133h-6.122Zm-5.264,13.311H373.21v-5.38H360.442Zm-1.052,3.037H374.1V67.1H359.389Zm-7.15,9.925c2.294-.574,5.19-1.363,7.914-2.154l-.358-2.51-2.629.693V71.239h2.177V68.727h-2.177V64.374h2.487V61.888H352v2.486h2.656v4.353h-2.44v2.512h2.44v4.687c-1.124.286-2.154.527-3.014.716ZM372.4,82.526a10.694,10.694,0,0,1,1.771-2.2,11.436,11.436,0,0,1-2.918-1.435,26.417,26.417,0,0,0,2.535-1.721L371.921,75.8h.884v-5.6H360.824v5.6H364.7a22.59,22.59,0,0,1-6.935,3.54,11.123,11.123,0,0,1,1.674,2.032,25.121,25.121,0,0,0,4.472-2.342v3.491h2.679V77.384a12.148,12.148,0,0,0,5.809,5.142M442.87,150.9a13.272,13.272,0,0,0-10.776-13.033V123.986h-21.35v-7.774a13.271,13.271,0,1,0-4.914,0v7.773H384.473v13.877a13.271,13.271,0,1,0,4.914-.015V128.9h37.793v8.949A13.271,13.271,0,1,0,442.87,150.9m21.954-71.431a23.575,23.575,0,0,1-8.012-2.51h7.582V74.73h-9.469V73.294h-1.365a4.909,4.909,0,0,0,1.84-2.846,16.17,16.17,0,0,1,2.321,2.224l1.363-1.219a2.269,2.269,0,0,0,.524,1.625,2.362,2.362,0,0,0,1.65.574h1.174a3.184,3.184,0,0,0,1.266-.238,1.715,1.715,0,0,0,.789-.934,11.706,11.706,0,0,0,.311-2.273,6.8,6.8,0,0,1-1.842-.98c-.024.765-.047,1.388-.095,1.65-.047.288-.119.43-.193.477a.364.364,0,0,1-.286.073H462a.21.21,0,0,1-.216-.12c-.072-.07-.047-.311-.047-.716V66.384h-8.751v2.39a3.1,3.1,0,0,1-1.005,2.487l-.072-1.171-2.966.43V68.465h2.99V66.5h-8.586v1.962h3.014V70.88c-1.34.191-2.559.359-3.564.477l.311,2.249c1.937-.312,4.378-.67,6.864-1.051a9.259,9.259,0,0,1,1.746,1.769c.169-.072.311-.12.455-.192v.6h-9.4v2.224h7.317a22.6,22.6,0,0,1-7.772,2.678,14.8,14.8,0,0,1,1.747,2.32,21.319,21.319,0,0,0,8.107-3.8v4.3h2.751V78.2a20.277,20.277,0,0,0,8.083,3.682,14.515,14.515,0,0,1,1.816-2.415M436.17,66.791h-2.632v1h2.632Zm-56.211-20.1H368.6v2.487h11.359ZM362.714,64.4h1.458V62.846h-1.458Zm6.575,0h1.555V62.846h-1.555Zm-3.3,0H367.5V62.846h-1.508Z" transform="translate(-317.283)" fill="#2fc996"/>
</svg>
